<?xml version="1.0" standalone="no"?>
<!DOCTYPE svg PUBLIC "-//W3C//DTD SVG 20010904//EN"
 "http://www.w3.org/TR/2001/REC-SVG-20010904/DTD/svg10.dtd">
<svg version="1.0" xmlns="http://www.w3.org/2000/svg"
 width="1979.000000pt" height="1979.000000pt" viewBox="0 0 1979.000000 1979.000000"
 preserveAspectRatio="xMidYMid meet">
<metadata>
Created by potrace 1.11, written by Peter Selinger 2001-2013
</metadata>
<g transform="translate(0.000000,1979.000000) scale(0.100000,-0.100000)"
fill="#000000" stroke="none">
<path d="M7285 18935 c-139 -41 -226 -155 -227 -295 -1 -95 29 -156 126 -260
424 -456 611 -848 562 -1183 -28 -197 -165 -444 -400 -727 -39 -46 -78 -93
-86 -103 -8 -11 -20 -24 -26 -31 -12 -13 -87 -101 -195 -231 -41 -49 -108
-133 -147 -185 -40 -52 -76 -99 -80 -105 -4 -5 -25 -37 -46 -70 -21 -33 -47
-72 -57 -87 -56 -81 -176 -343 -198 -436 -5 -20 -18 -71 -29 -113 -49 -182
-48 -435 2 -670 32 -151 137 -408 224 -553 23 -37 42 -70 42 -73 0 -5 153
-234 172 -258 4 -5 47 -59 95 -120 156 -197 215 -238 343 -239 125 0 219 58
277 169 34 66 41 154 19 226 -19 59 -31 76 -160 237 -84 104 -206 275 -206
288 0 3 -9 18 -19 32 -55 77 -163 326 -177 407 -3 16 -9 47 -15 67 -14 54 -18
203 -8 278 20 141 90 316 185 466 68 107 168 236 368 474 315 376 329 393 433
548 158 235 272 505 299 707 3 28 8 59 10 70 5 26 5 239 0 285 -16 146 -41
249 -93 390 -36 97 -130 294 -164 342 -11 14 -19 29 -19 32 0 6 -111 175 -132
201 -4 5 -49 62 -99 125 -91 116 -214 256 -279 318 -77 73 -201 105 -295 77z"/>
<path d="M8800 18853 c-82 -28 -151 -92 -187 -173 -24 -55 -26 -163 -4 -221
18 -45 59 -105 106 -155 149 -157 319 -376 396 -510 227 -400 234 -683 23
-1051 -37 -64 -140 -210 -196 -278 -9 -11 -67 -81 -129 -155 -61 -74 -123
-148 -138 -165 -292 -333 -487 -628 -585 -882 -34 -87 -78 -247 -93 -333 -9
-57 -10 -360 -1 -420 55 -364 233 -740 526 -1110 69 -88 73 -92 125 -153 119
-139 282 -170 421 -80 155 100 186 307 68 455 -234 293 -308 402 -397 580
-226 455 -178 794 178 1263 58 75 130 163 373 450 291 344 445 586 533 835 37
106 68 226 77 305 10 86 11 292 2 345 -5 25 -11 61 -14 80 -18 112 -65 265
-121 393 -34 77 -49 107 -116 227 -139 249 -487 669 -609 735 -63 34 -168 42
-238 18z"/>
<path d="M10505 18859 c-106 -26 -204 -132 -221 -239 -20 -119 13 -203 132
-330 69 -73 92 -100 176 -204 210 -261 329 -492 374 -725 11 -56 10 -187 -2
-254 -43 -248 -192 -486 -592 -946 -26 -30 -56 -65 -67 -79 -16 -20 -109 -133
-158 -192 -6 -8 -31 -40 -54 -71 -189 -258 -319 -504 -369 -703 -43 -167 -47
-196 -58 -396 -2 -43 9 -193 18 -235 2 -11 7 -40 11 -65 32 -208 190 -570 345
-791 14 -20 32 -47 40 -59 25 -38 171 -231 199 -264 102 -119 163 -167 233
-182 41 -9 129 -5 167 7 120 39 200 145 209 275 7 103 -12 145 -136 299 -395
493 -531 871 -438 1220 43 163 145 352 294 550 45 58 125 157 149 183 7 7 29
34 50 60 21 26 41 49 44 52 4 3 43 50 89 105 45 55 100 121 122 146 35 42 143
183 191 249 143 201 269 474 312 681 57 268 24 596 -85 854 -35 84 -75 172
-81 180 -4 6 -22 37 -39 70 -140 267 -525 733 -647 786 -56 24 -152 32 -208
18z"/>
<path d="M2457 12833 c-1 0 -20 -4 -42 -7 -120 -19 -201 -61 -283 -146 -31
-32 -86 -127 -97 -165 -4 -17 -11 -39 -14 -50 -13 -42 -2 -962 14 -1260 2 -38
7 -124 10 -190 3 -66 8 -145 10 -175 2 -30 7 -93 10 -140 6 -88 10 -143 19
-245 3 -33 8 -98 12 -145 3 -47 8 -87 9 -90 2 -3 6 -40 10 -84 3 -43 8 -90 10
-104 1 -15 6 -56 10 -92 3 -36 8 -72 10 -80 2 -8 6 -40 10 -70 3 -30 8 -72 11
-93 3 -20 7 -47 9 -60 4 -34 25 -179 29 -207 3 -14 10 -59 16 -100 7 -41 14
-84 16 -95 2 -11 13 -69 24 -130 24 -130 25 -137 46 -238 8 -42 18 -90 20
-105 3 -15 11 -52 19 -82 8 -30 23 -98 35 -150 12 -52 23 -102 25 -110 1 -8
10 -42 19 -75 9 -33 19 -70 22 -83 35 -165 225 -751 333 -1027 32 -80 35 -88
65 -157 9 -20 16 -39 16 -42 0 -3 13 -34 29 -68 16 -35 46 -101 66 -148 84
-189 266 -541 370 -715 26 -44 59 -100 73 -125 54 -96 289 -452 351 -532 12
-14 21 -29 21 -32 0 -2 -575 -5 -1277 -5 -703 0 -1296 -3 -1318 -6 -104 -15
-187 -57 -263 -133 -140 -138 -176 -340 -92 -521 34 -72 49 -91 204 -251 61
-64 145 -153 186 -199 41 -46 86 -96 100 -111 14 -15 44 -50 66 -76 23 -27 50
-58 60 -70 11 -12 44 -50 74 -84 30 -35 60 -68 65 -74 6 -6 25 -29 44 -51 184
-216 446 -479 641 -646 160 -136 449 -328 635 -422 234 -118 480 -219 730
-300 163 -52 501 -144 605 -163 14 -3 41 -9 60 -14 59 -16 376 -78 540 -105
182 -31 162 -28 320 -49 69 -9 136 -19 150 -21 14 -2 99 -14 190 -26 l165 -22
3015 -1 c1658 0 3042 3 3075 7 33 3 71 9 85 12 49 10 76 14 110 19 47 7 229
36 260 42 14 2 43 7 65 10 192 25 864 174 1163 258 283 79 657 219 897 335
127 62 175 88 315 168 52 30 283 183 290 193 3 3 42 34 86 68 86 64 222 181
313 266 62 59 297 296 337 341 14 17 47 53 73 80 25 28 100 109 166 180 165
180 246 265 424 445 164 166 204 215 232 291 25 65 30 92 30 174 0 79 -27 174
-68 238 -67 106 -204 197 -321 213 -15 2 -623 4 -1350 4 -1023 1 -1323 4
-1319 13 3 7 40 60 83 119 136 184 274 391 383 573 20 33 41 69 48 80 7 11 18
31 25 45 7 14 15 27 18 30 6 6 8 10 98 176 81 151 220 435 283 581 24 57 47
103 51 103 4 0 10 -10 14 -22 17 -56 208 -346 293 -444 115 -134 278 -285 411
-382 277 -202 626 -337 985 -380 124 -15 478 -7 569 13 11 2 35 7 51 9 125 20
383 93 480 136 11 5 56 25 101 44 831 365 1534 1198 1862 2206 58 179 116 402
137 530 3 19 7 46 10 60 6 33 13 75 20 130 3 25 8 56 10 70 14 77 19 205 20
460 0 253 -4 332 -20 445 -3 17 -7 53 -10 80 -5 40 -39 215 -59 305 -44 192
-136 441 -237 640 -167 330 -374 589 -644 805 -85 68 -228 165 -244 165 -5 0
-11 4 -13 8 -5 13 -222 117 -317 152 -91 33 -283 86 -346 95 -23 3 -52 8 -65
10 -133 27 -485 27 -640 1 -14 -3 -43 -7 -65 -11 -153 -22 -541 -148 -622
-201 -12 -7 -26 -14 -31 -14 -17 0 -234 -124 -338 -193 -173 -114 -314 -228
-477 -386 l-66 -64 5 174 c12 416 11 824 -2 889 -19 90 -58 163 -123 230 -79
80 -162 122 -276 136 -40 6 -12433 13 -12438 7z m14961 -1486 c13 -4 31 -8 40
-11 9 -3 29 -7 44 -10 53 -9 179 -59 259 -102 396 -213 669 -651 769 -1232 38
-220 44 -534 14 -782 -14 -120 -50 -302 -88 -445 -2 -5 -6 -23 -11 -40 -41
-160 -130 -387 -225 -577 -61 -121 -211 -374 -229 -388 -4 -3 -21 -25 -38 -50
-97 -141 -285 -339 -450 -474 -279 -228 -594 -372 -898 -411 -52 -6 -241 -7
-282 0 -18 3 -45 7 -60 9 -24 4 -84 18 -133 31 -254 68 -510 264 -682 522
-120 179 -234 449 -273 641 -2 9 -10 53 -19 97 -34 167 -44 296 -41 530 1 127
5 241 8 255 3 14 8 53 11 87 5 52 16 115 52 293 10 49 22 96 48 185 170 580
498 1105 901 1440 33 28 62 53 65 56 3 4 61 45 130 91 206 139 401 224 625
272 95 21 132 24 275 21 91 -1 175 -5 188 -8z"/>
</g>
</svg>
